<?xml version="1.0" encoding="UTF-8"?><svg xmlns="http://www.w3.org/2000/svg" width="1900" height="1280" viewBox="0 0 1900 1280"><style>text{font-family:Inter,"PingFang SC","Microsoft YaHei",sans-serif}.ink{fill:#142033}.muted{fill:#718096}.white{fill:#fff}.blue{fill:#3478f6}.green{fill:#14a675}.orange{fill:#ef9b26}.red{fill:#e05263}.tiny{font-size:10px;letter-spacing:1px}.small{font-size:12px}.label{font-size:13px;font-weight:700}.title{font-size:18px;font-weight:800}</style><rect width="1900" height="1280" fill="#e7edf4"/><text x="20" y="24" class="muted tiny">桌面端：控件状态直接落实到表单</text><text x="1398" y="24" class="muted tiny">移动端：全屏表单与底部选择面板</text><g transform="translate(0 44)"><rect width="1360" height="1210" rx="18" fill="#17263f"/><rect x="145" y="24" width="1070" height="1150" rx="18" fill="#fff"/><text x="181" y="70" class="ink title">编辑站点</text><text x="181" y="96" class="muted small">字段状态、选择行为和校验信息均为实际表单内容。</text><text x="1175" y="70" text-anchor="end" class="muted title">×</text><line x1="145" y1="116" x2="1215" y2="116" stroke="#e5ebf2"/><text x="181" y="158" class="ink title">基础信息</text><text x="181" y="196" class="ink label">站点域名<tspan fill="#e05263"> *</tspan></text><rect x="181" y="208" width="380" height="40" rx="8" fill="#fff" stroke="#3478f6" stroke-width="2"/><text x="193" y="234" class="ink small">pt.m-team.cc</text><text x="181" y="270" class="green small">✓ 域名可用，将自动显示站点名称。</text><rect x="590" y="216" width="18" height="18" rx="4" fill="#3478f6" stroke="#3478f6"/><text x="599" y="230" text-anchor="middle" class="white small">✓</text><text x="618" y="229" class="ink small">启用站点</text><text x="181" y="330" class="ink title">访问凭证</text><text x="181" y="368" class="ink label">API Key</text><rect x="181" y="380" width="380" height="40" rx="8" fill="#fff" stroke="#dce5ee" stroke-width="1"/><text x="193" y="406" class="ink small">已保存，留空不修改</text><text x="526" y="406" class="blue small">显示</text><text x="590" y="368" class="ink label">Cookie</text><rect x="590" y="380" width="380" height="40" rx="8" fill="#fff" stroke="#dce5ee" stroke-width="1"/><text x="602" y="406" class="ink small">已保存，留空不修改</text><text x="935" y="406" class="blue small">显示</text><text x="181" y="454" class="ink label">User-Agent</text><rect x="181" y="466" width="789" height="40" rx="8" fill="#fff" stroke="#dce5ee" stroke-width="1"/><text x="193" y="492" class="ink small">当前浏览器 User-Agent</text><text x="850" y="492" class="blue small">恢复当前浏览器</text><text x="181" y="548" class="ink title">签到设置</text><rect x="181" y="568" width="18" height="18" rx="4" fill="#3478f6" stroke="#3478f6"/><text x="190" y="582" text-anchor="middle" class="white small">✓</text><text x="209" y="581" class="ink small">启用每日签到</text><text x="181" y="626" class="ink label">签到时间<tspan fill="#e05263"> *</tspan></text><rect x="181" y="638" width="190" height="40" rx="8" fill="#fff" stroke="#e05263" stroke-width="2"/><text x="193" y="664" class="ink small">9:00</text><text x="181" y="700" class="red small">请输入 HH:mm，例如 09:00</text><rect x="402" y="624" width="568" height="82" rx="10" fill="#fff7ed"/><text x="420" y="654" class="orange label">调度说明</text><text x="420" y="681" class="muted small">关闭签到后时间字段折叠；不支持签到的站点会被调度器跳过。</text><text x="181" y="764" class="ink title">浏览站点种子：资源分类选择</text><text x="181" y="802" class="ink label">资源分类</text><rect x="181" y="814" width="318" height="40" rx="8" fill="#fff" stroke="#dce5ee" stroke-width="2"/><text x="193" y="840" class="ink small">全部分类</text><text x="475" y="841" class="blue title">⌃</text><rect x="181" y="860" width="318" height="152" rx="10" fill="#fff" stroke="#bcd3fb"/><rect x="189" y="868" width="318" height="38" rx="7" fill="#eaf2ff"/><text x="205" y="893" class="blue label">✓　全部分类</text><rect x="189" y="906" width="318" height="38" rx="7" fill="#fff"/><text x="205" y="931" class="ink label">电影</text><rect x="189" y="944" width="318" height="38" rx="7" fill="#fff"/><text x="205" y="969" class="ink label">剧集</text><rect x="189" y="982" width="318" height="38" rx="7" fill="#fff"/><text x="205" y="1007" class="ink label">音乐</text><line x1="145" y1="1100" x2="1215" y2="1100" stroke="#e5ebf2"/><text x="181" y="1143" class="muted small">取消</text><rect x="1060" y="1118" width="118" height="42" rx="9" fill="#3478f6"/><text x="1119" y="1145" text-anchor="middle" class="white label">保存</text></g><g transform="translate(1400 44)"><rect width="460" height="1210" rx="24" fill="#f2f5f9"/><rect x="35" width="390" height="1210" rx="24" fill="#fff"/><text x="57" y="48" class="ink title">编辑站点</text><text x="57" y="74" class="muted small">全屏表单</text><text x="57" y="122" class="ink title">基础信息</text><text x="57" y="160" class="ink label">站点域名<tspan fill="#e05263"> *</tspan></text><rect x="57" y="172" width="326" height="40" rx="8" fill="#fff" stroke="#3478f6" stroke-width="2"/><text x="69" y="198" class="ink small">pt.m-team.cc</text><text x="57" y="232" class="green small">✓ 域名可用</text><rect x="57" y="266" width="18" height="18" rx="4" fill="#3478f6" stroke="#3478f6"/><text x="66" y="280" text-anchor="middle" class="white small">✓</text><text x="85" y="279" class="ink small">启用站点</text><text x="57" y="330" class="ink title">访问凭证</text><text x="57" y="368" class="ink label">API Key</text><rect x="57" y="380" width="326" height="40" rx="8" fill="#fff" stroke="#dce5ee" stroke-width="1"/><text x="69" y="406" class="ink small">已保存，留空不修改</text><text x="340" y="406" class="blue small">显示</text><text x="57" y="446" class="ink label">Cookie</text><rect x="57" y="458" width="326" height="40" rx="8" fill="#fff" stroke="#dce5ee" stroke-width="1"/><text x="69" y="484" class="ink small">已保存，留空不修改</text><text x="57" y="524" class="ink title">签到</text><rect x="57" y="544" width="18" height="18" rx="4" fill="#3478f6" stroke="#3478f6"/><text x="66" y="558" text-anchor="middle" class="white small">✓</text><text x="85" y="557" class="ink small">启用每日签到</text><text x="57" y="602" class="ink label">签到时间<tspan fill="#e05263"> *</tspan></text><rect x="57" y="614" width="180" height="40" rx="8" fill="#fff" stroke="#e05263" stroke-width="2"/><text x="69" y="640" class="ink small">9:00</text><text x="57" y="676" class="red small">请输入 HH:mm，例如 09:00</text><rect x="35" y="806" width="390" height="300" rx="20" fill="#fff" stroke="#dce5ee"/><text x="59" y="854" class="ink title">选择资源分类</text><rect x="59" y="882" width="318" height="38" rx="7" fill="#eaf2ff"/><text x="75" y="907" class="blue label">✓　全部分类</text><rect x="59" y="920" width="318" height="38" rx="7" fill="#fff"/><text x="75" y="945" class="ink label">电影</text><rect x="59" y="958" width="318" height="38" rx="7" fill="#fff"/><text x="75" y="983" class="ink label">剧集</text><rect x="59" y="996" width="318" height="38" rx="7" fill="#fff"/><text x="75" y="1021" class="ink label">音乐</text></g></svg>