<svg width="1440" height="960" viewBox="0 0 1440 960" fill="none" xmlns="http://www.w3.org/2000/svg">
  <defs>
    <filter id="card" x="-10%" y="-10%" width="120%" height="130%"><feDropShadow dx="0" dy="10" stdDeviation="18" flood-color="#111827" flood-opacity="0.08"/></filter>
    <style>.t{font-family:Inter,Arial,sans-serif}.dark{fill:#111827}.muted{fill:#6b7280}.small{font-size:14px}.label{font-size:16px;font-weight:700}.h1{font-size:30px;font-weight:800}</style>
  </defs>
  <rect width="1440" height="960" fill="#f6f8fb"/>
  <rect width="1440" height="72" fill="#fff"/><rect y="71" width="1440" height="1" fill="#e5e7eb"/>
  <rect x="32" y="18" width="36" height="36" rx="10" fill="#3f7cff"/><text x="50" y="42" text-anchor="middle" fill="#fff" class="t" font-size="13" font-weight="800">PT</text>
  <text x="84" y="43" class="t dark" font-size="20" font-weight="800">PT Automation</text><text x="1210" y="43" class="t muted small">admin</text><text x="1270" y="43" class="t muted small">系统设置</text><text x="1350" y="43" class="t muted small">退出</text>
  <rect x="0" y="72" width="232" height="888" fill="#fff"/><rect x="231" y="72" width="1" height="888" fill="#e5e7eb"/>
  <g class="t" font-size="15"><text x="56" y="144" fill="#374151">Dashboard</text><rect x="24" y="176" width="184" height="44" rx="12" fill="#eff6ff"/><text x="56" y="204" fill="#2563eb" font-weight="800">站点</text><text x="56" y="260" fill="#374151">种子</text><text x="56" y="316" fill="#374151">下载器</text><text x="56" y="372" fill="#374151">代理管理</text><text x="56" y="428" fill="#374151">任务</text><text x="56" y="484" fill="#374151">系统设置</text></g>
  <g transform="translate(280 112)">
    <text x="0" y="0" class="t dark h1">站点</text><text x="0" y="34" class="t muted" font-size="16">管理 PT 站点域名、API Key、Cookie、代理、连通状态和用户统计</text><rect x="904" y="-28" width="176" height="46" rx="14" fill="#3f7cff"/><text x="992" y="1" text-anchor="middle" class="t" fill="#fff" font-size="16" font-weight="800">新增站点</text>
    <g transform="translate(0 78)" filter="url(#card)"><rect width="200" height="96" rx="22" fill="#fff"/><text x="24" y="36" class="t muted label">全部站点</text><text x="24" y="74" class="t dark" font-size="32" font-weight="800">3</text></g>
    <g transform="translate(220 78)" filter="url(#card)"><rect width="200" height="96" rx="22" fill="#fff"/><text x="24" y="36" class="t muted label">在线站点</text><text x="24" y="74" fill="#10b981" class="t" font-size="32" font-weight="800">3</text></g>
    <g transform="translate(440 78)" filter="url(#card)"><rect width="200" height="96" rx="22" fill="#fff"/><text x="24" y="36" class="t muted label">认证失败</text><text x="24" y="74" fill="#f59e0b" class="t" font-size="32" font-weight="800">0</text></g>
    <g transform="translate(660 78)" filter="url(#card)"><rect width="200" height="96" rx="22" fill="#fff"/><text x="24" y="36" class="t muted label">离线站点</text><text x="24" y="74" fill="#ef4444" class="t" font-size="32" font-weight="800">0</text></g>
    <g transform="translate(880 78)" filter="url(#card)"><rect width="200" height="96" rx="22" fill="#fff"/><text x="24" y="36" class="t muted label">未知状态</text><text x="24" y="74" class="t dark" font-size="32" font-weight="800">0</text></g>
    <g transform="translate(0 210)" filter="url(#card)"><rect width="1080" height="88" rx="24" fill="#fff"/><rect x="24" y="20" width="320" height="48" rx="14" fill="#f9fafb" stroke="#e5e7eb"/><text x="44" y="50" class="t muted small">搜索站点 / 域名</text><rect x="368" y="20" width="170" height="48" rx="14" fill="#f9fafb" stroke="#e5e7eb"/><text x="388" y="50" class="t dark small">状态：全部</text><rect x="562" y="20" width="184" height="48" rx="14" fill="#f9fafb" stroke="#e5e7eb"/><text x="582" y="50" class="t dark small">代理：全部</text><rect x="770" y="20" width="146" height="48" rx="14" fill="#f9fafb" stroke="#e5e7eb"/><text x="790" y="50" class="t dark small">启用：全部</text><rect x="942" y="20" width="114" height="48" rx="14" fill="#eef6ff"/><text x="999" y="50" text-anchor="middle" fill="#2563eb" class="t small" font-weight="800">刷新</text></g>
    <g transform="translate(0 334)" filter="url(#card)">
      <rect width="1080" height="350" rx="28" fill="#fff"/>
      <text x="28" y="44" class="t muted small" font-weight="800">站点</text><text x="180" y="44" class="t muted small" font-weight="800">连通状态</text><text x="300" y="44" class="t muted small" font-weight="800">用户等级</text><text x="456" y="44" class="t muted small" font-weight="800">分享率</text><text x="558" y="44" class="t muted small" font-weight="800">上传量</text><text x="676" y="44" class="t muted small" font-weight="800">下载量</text><text x="794" y="44" class="t muted small" font-weight="800">凭证</text><text x="902" y="44" class="t muted small" font-weight="800">操作</text><line x1="28" y1="64" x2="1052" y2="64" stroke="#e5e7eb"/>
      <text x="28" y="112" class="t dark label">馒头</text><text x="28" y="134" class="t muted small">pt.m-team.cc</text><rect x="180" y="88" width="68" height="32" rx="16" fill="#10b981"/><text x="214" y="109" text-anchor="middle" class="t" fill="#fff" font-size="13" font-weight="800">在线</text><text x="300" y="109" class="t dark small">8</text><text x="456" y="109" fill="#10b981" class="t small" font-weight="800">8.11</text><text x="558" y="109" class="t dark small">113.26 TB</text><text x="676" y="109" class="t dark small">13.97 TB</text><rect x="794" y="88" width="82" height="32" rx="16" fill="#eef2ff"/><text x="835" y="109" text-anchor="middle" fill="#4338ca" class="t" font-size="13" font-weight="800">API Key</text><text x="902" y="109" fill="#2563eb" class="t small" font-weight="800">测试</text><text x="948" y="109" fill="#2563eb" class="t small" font-weight="800">浏览</text><text x="994" y="109" fill="#2563eb" class="t small" font-weight="800">编辑</text><text x="1040" y="109" fill="#ef4444" class="t small" font-weight="800">删除</text>
      <line x1="28" y1="154" x2="1052" y2="154" stroke="#e5e7eb"/>
      <text x="28" y="202" class="t dark label">憨憨</text><text x="28" y="224" class="t muted small">hhanclub.net</text><rect x="180" y="178" width="68" height="32" rx="16" fill="#10b981"/><text x="214" y="199" text-anchor="middle" class="t" fill="#fff" font-size="13" font-weight="800">在线</text><text x="300" y="199" class="t dark small">发布员</text><text x="456" y="199" fill="#10b981" class="t small" font-weight="800">5.98</text><text x="558" y="199" class="t dark small">26.85 TB</text><text x="676" y="199" class="t dark small">4.49 TB</text><rect x="794" y="178" width="74" height="32" rx="16" fill="#f3f4f6"/><text x="831" y="199" text-anchor="middle" fill="#374151" class="t" font-size="13" font-weight="800">Cookie</text><text x="902" y="199" fill="#2563eb" class="t small" font-weight="800">测试</text><text x="948" y="199" fill="#2563eb" class="t small" font-weight="800">浏览</text><text x="994" y="199" fill="#2563eb" class="t small" font-weight="800">编辑</text><text x="1040" y="199" fill="#ef4444" class="t small" font-weight="800">删除</text>
    </g>
  </g>
  <g transform="translate(70 720)">
    <rect width="1280" height="210" rx="14" fill="#fff" stroke="#e5e7eb"/>
    <rect width="1280" height="56" rx="14" fill="#8b5cf6"/><text x="24" y="36" fill="#fff" class="t" font-size="20" font-weight="800">浏览 - 馒头</text><text x="1244" y="36" fill="#fff" class="t" font-size="26">×</text>
    <rect x="24" y="78" width="360" height="42" rx="12" fill="#f9fafb" stroke="#e5e7eb"/><text x="46" y="104" class="t muted small">搜索关键字</text><rect x="410" y="78" width="360" height="42" rx="12" fill="#f9fafb" stroke="#e5e7eb"/><text x="432" y="104" class="t muted small">资源分类</text><rect x="800" y="78" width="220" height="42" rx="12" fill="#8b5cf6"/><text x="910" y="104" text-anchor="middle" fill="#fff" class="t small" font-weight="800">搜索</text><text x="24" y="146" class="t muted small">标题</text><text x="760" y="146" class="t muted small">时间</text><text x="930" y="146" class="t muted small">大小</text><text x="1060" y="146" class="t muted small">做种</text><text x="1160" y="146" class="t muted small">下载</text><text x="24" y="178" class="t dark small" font-weight="800">MBC Good Day 20260225 HDTV 1080i AC3 MP2-TPTV</text><text x="760" y="178" class="t muted small">06/04 11:32</text><text x="930" y="178" class="t muted small">6.22 GB</text><text x="1060" y="178" class="t muted small">0</text><text x="1160" y="178" class="t muted small">0</text>
  </g>
</svg>
